<?xml version="1.0" encoding="UTF-8"?>
<svg xmlns="http://www.w3.org/2000/svg" xmlns:xlink="http://www.w3.org/1999/xlink" width="2000pt" height="2000pt" viewBox="0 0 2000 2000" version="1.1">
<g id="surface1">
<path style=" stroke:none;fill-rule:nonzero;fill:rgb(0%,0%,0%);fill-opacity:1;" d="M 1345.371094 932.199219 C 1315.011719 932.199219 1286.378906 920.339844 1262.890625 898.359375 C 1239.398438 920.339844 1210.769531 932.199219 1180.410156 932.199219 C 1150.050781 932.199219 1121.429688 920.320313 1097.941406 898.351563 C 1074.441406 920.339844 1045.820313 932.199219 1015.460938 932.199219 C 985.097656 932.199219 956.472656 920.320313 932.988281 898.351563 C 909.492188 920.339844 880.867188 932.199219 850.507813 932.199219 C 812.976563 932.199219 778.097656 914.058594 752.296875 881.121094 L 783.777344 856.449219 C 801.835938 879.5 825.535156 892.199219 850.507813 892.199219 C 875.476563 892.199219 899.179688 879.5 917.246094 856.449219 C 921.035156 851.601563 926.847656 848.78125 932.988281 848.78125 C 939.140625 848.78125 944.941406 851.609375 948.730469 856.449219 C 966.785156 879.5 990.488281 892.199219 1015.460938 892.199219 C 1040.429688 892.199219 1064.128906 879.5 1082.199219 856.449219 C 1085.988281 851.601563 1091.800781 848.78125 1097.941406 848.78125 C 1104.089844 848.78125 1109.890625 851.609375 1113.679688 856.449219 C 1131.738281 879.5 1155.441406 892.199219 1180.410156 892.199219 C 1205.390625 892.199219 1229.089844 879.5 1247.148438 856.449219 C 1254.730469 846.78125 1271.050781 846.78125 1278.628906 856.449219 C 1296.691406 879.5 1320.390625 892.199219 1345.371094 892.199219 C 1370.339844 892.199219 1394.039063 879.5 1412.101563 856.449219 L 1443.578125 881.121094 C 1417.78125 914.058594 1382.898438 932.199219 1345.371094 932.199219 "/>
<path style=" stroke:none;fill-rule:nonzero;fill:rgb(0%,0%,0%);fill-opacity:1;" d="M 901.503906 844.109375 C 903.925781 841.019531 906.863281 838.511719 910 836.300781 L 910 540 L 1096.109375 540 L 1096.109375 726.5 L 1047.941406 726.5 L 1047.941406 766.5 L 1096.109375 766.5 L 1096.109375 828.988281 C 1096.730469 828.960938 1097.320313 828.78125 1097.941406 828.78125 C 1110.230469 828.78125 1121.851563 834.441406 1129.429688 844.109375 C 1131.570313 846.839844 1133.808594 849.308594 1136.109375 851.660156 L 1136.109375 500 L 870 500 L 870 868.460938 C 881.53125 864.050781 892.335938 855.800781 901.503906 844.109375 "/>
<path style=" stroke:none;fill-rule:nonzero;fill:rgb(0%,0%,0%);fill-opacity:1;" d="M 1097.941406 924.210938 C 1097.339844 924.648438 1096.710938 925.03125 1096.109375 925.460938 L 1096.109375 980 L 1019.078125 980 L 1019.078125 1020 L 1096.109375 1020 L 1096.109375 1233.5 L 1047.941406 1233.5 L 1047.941406 1273.5 L 1096.109375 1273.5 L 1096.109375 1460 L 910 1460 L 910 1165.800781 C 896.035156 1162.179688 882.5625 1156.339844 870 1148.421875 L 870 1500 L 1136.109375 1500 L 1136.109375 944.511719 C 1122.679688 939.78125 1109.820313 932.980469 1097.941406 924.210938 "/>
<path style=" stroke:none;fill-rule:nonzero;fill:rgb(0%,0%,0%);fill-opacity:1;" d="M 892.234375 1062 C 897.644531 1068.921875 903.632813 1074.621094 910 1079.058594 L 910 938.070313 C 897.246094 944.320313 883.808594 948.589844 870 950.660156 L 870 1047.78125 C 878.71875 1049.859375 886.59375 1054.808594 892.234375 1062 "/>
<path style=" stroke:none;fill-rule:nonzero;fill:rgb(0%,0%,0%);fill-opacity:1;" d="M 943.214844 1150.089844 C 912.851563 1150.089844 884.226563 1138.210938 860.742188 1116.238281 C 837.246094 1138.21875 808.621094 1150.089844 778.261719 1150.089844 C 747.898438 1150.089844 719.277344 1138.21875 695.78125 1116.238281 C 672.296875 1138.210938 643.671875 1150.089844 613.308594 1150.089844 C 575.78125 1150.089844 540.898438 1131.949219 515.089844 1099.011719 L 546.570313 1074.339844 C 564.636719 1097.390625 588.339844 1110.089844 613.308594 1110.089844 C 638.28125 1110.089844 661.980469 1097.390625 680.039063 1074.339844 C 687.605469 1064.671875 703.933594 1064.648438 711.523438 1074.339844 C 729.589844 1097.390625 753.289063 1110.089844 778.261719 1110.089844 C 803.230469 1110.089844 826.933594 1097.390625 845 1074.339844 C 848.789063 1069.5 854.597656 1066.671875 860.742188 1066.671875 C 866.894531 1066.671875 872.695313 1069.5 876.484375 1074.339844 C 894.539063 1097.390625 918.242188 1110.089844 943.214844 1110.089844 C 968.191406 1110.089844 991.894531 1097.390625 1009.949219 1074.339844 L 1041.429688 1099.011719 C 1015.628906 1131.949219 980.753906 1150.089844 943.214844 1150.089844 "/>
</g>
</svg>
